<svg width="28" height="28" viewBox="0 0 28 28" fill="none" xmlns="http://www.w3.org/2000/svg">
<path d="M21.032 14.0548C20.8414 14.0548 20.6525 14.0628 20.4657 14.0779C19.4145 9.41965 13.605 2.40103 11.0442 0.215412C10.7314 -0.0688468 10.2538 -0.0689015 9.94103 0.215412C6.25983 3.44453 -0.314083 11.8515 0.0116667 17.5097C-0.0694016 25.8305 9.5797 30.9054 16.3616 26.1893C20.7495 30.2171 28.0207 27.0382 27.9999 21.0226C28 17.1806 24.8742 14.0548 21.032 14.0548ZM10.4926 26.3508C5.61757 26.3508 1.65145 22.3847 1.65145 17.5096C1.65145 11.1279 8.48104 3.93674 10.4934 1.95677C11.5842 3.02706 17.1547 8.60038 18.8512 14.4028C14.5425 15.7354 12.6402 21.2321 15.2744 24.9468C13.8497 25.8678 12.2124 26.3508 10.4926 26.3508ZM21.032 26.3508C18.0942 26.3508 15.704 23.9606 15.704 21.0227C15.9719 13.9641 26.0933 13.9661 26.3601 21.0228C26.3601 23.9606 23.9699 26.3508 21.032 26.3508Z" fill="white"/>
<path d="M5.16455 17.5097C5.16455 17.0568 4.79742 16.6897 4.34457 16.6897C3.89173 16.6897 3.5246 17.0568 3.5246 17.5097C3.5246 19.368 4.24913 21.1174 5.5647 22.4355C6.36106 23.1763 7.46431 22.0739 6.72546 21.2771C5.71891 20.2685 5.16455 18.9305 5.16455 17.5097Z" fill="white"/>
<path d="M22.3848 19.414C22.777 19.1875 22.9113 18.686 22.6849 18.2938L22.5026 17.9782C22.2001 17.4544 21.6365 17.129 21.0317 17.1292C20.4269 17.1293 19.8634 17.4546 19.5611 17.9783L19.3787 18.2943C19.1524 18.6865 19.2869 19.188 19.6792 19.4143C20.0714 19.6406 20.5729 19.5061 20.7992 19.1139L20.9813 18.7981C21.002 18.7623 21.0615 18.7623 21.0821 18.7981L21.2647 19.1139C21.4912 19.5061 21.9927 19.6404 22.3848 19.414Z" fill="white"/>
<path d="M19.4946 22.1789L19.13 22.179C19.0887 22.179 19.0589 22.1275 19.0797 22.0917L19.2619 21.7757C19.7703 20.8143 18.4191 20.0353 17.8416 20.9559L17.6594 21.2715C17.357 21.7954 17.357 22.4462 17.6595 22.9698C17.9619 23.4935 18.5255 23.8188 19.1301 23.8188H19.495C19.9478 23.8187 20.3148 23.4515 20.3147 22.9986C20.3147 22.5458 19.9475 22.1788 19.4946 22.1789Z" fill="white"/>
<path d="M24.2225 20.9559C23.6442 20.0348 22.2939 20.8153 22.8021 21.7758L22.9844 22.0917C23.0051 22.1275 22.9754 22.179 22.9341 22.1791L22.5695 22.1789C22.1166 22.1788 21.7494 22.5458 21.7493 22.9987C21.7492 23.4515 22.1163 23.8188 22.5691 23.8189H22.9339C23.5386 23.8189 24.1021 23.4935 24.4045 22.9699C24.707 22.4462 24.7071 21.7954 24.4047 21.2716L24.2225 20.9559Z" fill="white"/>
</svg>
